<svg width="42" height="52" viewBox="0 0 898 1030" fill="none" xmlns="http://www.w3.org/2000/svg">
<path d="M424.4 0.933239C423.067 1.46657 422.667 27.4666 422.667 124.667C422.667 235.6 422.933 247.733 424.8 248.533C427.467 249.6 439.2 249.6 441.867 248.533C443.733 247.733 444 235.6 444 124.667C444 13.7332 443.733 1.59991 441.867 0.799906C439.467 -0.133428 426.8 -0.133428 424.4 0.933239Z" fill="black"/>
<path d="M10.4 96.8C6.79997 99.4667 3.99997 102.4 3.99997 103.467C3.99997 106.667 149.2 299.333 152 299.733C154.667 300.133 166 292.533 167.333 289.467C168.4 286.933 170.533 290 91.7333 185.333C44.4 122.4 21.2 92.5333 19.3333 92.4C17.8666 92.1333 13.8666 94.1333 10.4 96.8Z" fill="black"/>
<path d="M835.467 173.6C810.933 203.867 776.533 246.4 758.8 268C741.2 289.6 726.667 308.267 726.667 309.6C726.667 311.6 739.067 322.667 741.2 322.667C743.067 322.667 751.067 313.067 808.133 242.667C839.867 203.467 872.933 162.667 881.6 152C890.267 141.333 897.333 132 897.333 131.067C897.333 129.2 884.267 118.667 881.867 118.667C880.933 118.667 860 143.467 835.467 173.6Z" fill="black"/>
<path d="M422 286.267C318.267 290.133 236 317.867 165.6 372.267C148.533 385.6 114.533 418.933 102.133 434.667C83.0667 458.933 54.6667 506.8 54.6667 514.667C54.6667 524.933 81.2 569.733 104.4 598.667C130.667 631.467 176 669.733 212.4 689.867C279.733 727.2 350.4 744.4 436 744.4C501.467 744.4 556.4 734.533 610 713.333C661.067 693.067 701.6 666.4 740.8 627.467C751.867 616.4 764.933 602.267 769.867 596C791.467 568.533 817.333 524.4 817.333 514.667C817.333 508 790.533 461.333 775.467 442C705.2 351.2 600.933 296.8 480 288.133C456.667 286.4 434.667 285.733 422 286.267ZM290.133 338.667C278.533 348.133 262.933 364.4 252.133 378.667C217.333 424.133 200.133 490.667 208.8 545.867C218.267 606.933 245.067 654.4 292.667 694.4C296.4 697.467 298.533 700 297.6 700C293.6 700 258.133 685.733 242.667 677.867C184.533 648.4 138.133 607.867 104.267 556.667C88.8 533.467 80.6667 517.6 81.7333 513.333C82.8 508.933 94.1333 489.2 104.8 473.333C117.6 453.867 129.467 439.733 149.2 420C177.2 392.133 206.8 370.933 242.267 353.333C260 344.533 294 330.8 298.4 330.667C299.333 330.667 295.6 334.267 290.133 338.667ZM591.733 336.8C625.333 348.933 659.733 368 690.667 391.333C708.267 404.667 740.667 437.067 753.867 454.4C770.4 476.267 790.667 510 790.667 515.6C790.667 519.067 776.4 544.267 765.333 560.533C751.867 580.4 736.8 597.733 716.933 616.533C689.467 642.533 664 660.4 629.333 677.867C613.867 685.733 578.4 700 574.4 700C573.467 700 575.733 697.467 579.333 694.4C626.933 654.4 653.733 606.933 663.2 545.867C671.867 490.667 654.667 424.133 619.867 378.667C609.067 364.4 593.467 348.133 581.867 338.667C576.4 334.267 572.533 330.667 573.333 330.667C574 330.667 582.4 333.467 591.733 336.8ZM467.333 406.667C489.867 413.867 512.933 429.6 526.133 447.067C544.133 470.8 552.133 502.533 547.6 532.4C546.533 539.6 545.333 545.867 544.933 546.133C544.533 546.533 542 544.667 539.2 542.133C523.6 527.867 499.467 524.533 480.4 534.133C449.2 550 442.133 592.8 466.8 617.467L471.867 622.533L467.6 623.867C437.2 633.333 400.8 627.6 372.933 608.933C319.333 573.067 307.067 498.8 346 447.067C361.2 426.667 388.8 409.467 414.8 404C418 403.333 429.067 402.933 439.333 403.2C454.133 403.6 460 404.267 467.333 406.667ZM518.933 540C549.333 551.333 557.067 591.067 532.933 612.8C516.4 627.733 491.6 627.733 475.067 612.8C455.733 595.467 455.867 565.467 475.333 548.4C487.733 537.6 504.133 534.4 518.933 540Z" fill="black"/>
<path d="M100.267 802.933C70.9333 839.067 37.0666 880.933 24.8 896C12.5333 911.067 1.86664 924.4 1.06664 925.733C-2.94721e-05 927.867 0.933304 929.2 6.26664 934.133C10.1333 937.733 13.7333 940 15.3333 939.733C18 939.333 27.7333 927.6 117.733 816.667C146.8 780.8 170.667 750.4 170.667 749.067C170.667 746.4 159.333 737.333 155.867 737.333C154.4 737.333 134.267 761.067 100.267 802.933Z" fill="black"/>
<path d="M708.267 744C704.4 746.933 701.333 750 701.333 750.667C701.333 753.467 846.933 946 849.333 946.4C852.133 946.933 865.333 937.6 865.333 935.2C865.333 932.4 719.867 739.333 717.467 738.933C716.133 738.667 712 740.933 708.267 744Z" fill="black"/>
<path d="M416.933 782.267C416.4 782.667 416 838.133 416 905.467C416 1015.73 416.267 1027.73 418.133 1028.53C421.867 1030 435.467 1029.33 437.067 1027.73C438.267 1026.53 438.667 997.6 438.667 905.867C438.667 839.733 438.267 784.667 437.867 783.467C437.2 781.733 434.933 781.333 427.467 781.333C422.133 781.333 417.333 781.733 416.933 782.267Z" fill="black"/>
</svg>
